<svg width="24" height="24" viewBox="0 0 24 24" fill="none" xmlns="http://www.w3.org/2000/svg">
<path d="M11.6621 2.62544C11.8571 2.46144 12.1429 2.46144 12.3379 2.62544C14.6945 4.60722 17.6954 5.84598 20.9814 5.98481C21.2227 5.99504 21.4286 6.16955 21.4619 6.40864C21.5523 7.05969 21.5996 7.72494 21.5996 8.40083C21.5994 14.6078 17.6713 19.8962 12.166 21.9194C12.059 21.9586 11.941 21.9586 11.834 21.9194C6.32854 19.8962 2.40044 14.607 2.40039 8.39985C2.40041 7.72429 2.44771 7.05937 2.53809 6.40864C2.57144 6.16955 2.77734 5.99505 3.01855 5.98481C6.30457 5.84597 9.30547 4.60722 11.6621 2.62544ZM12 15.6C11.3373 15.6 10.7998 16.1375 10.7998 16.8002C10.7999 17.4629 11.3373 18.0004 12 18.0004C12.6627 18.0004 13.2001 17.4629 13.2002 16.8002C13.2002 16.1375 12.6627 15.6 12 15.6ZM12 7.35005C11.5858 7.35005 11.25 7.68583 11.25 8.10005V12.3002C11.2501 12.7143 11.5859 13.0502 12 13.0502C12.4141 13.0502 12.7499 12.7143 12.75 12.3002V8.10005C12.75 7.68583 12.4142 7.35005 12 7.35005Z" fill="#037CBF"/>
</svg>
