<svg width="24" height="17" viewBox="0 0 24 17" fill="none" xmlns="http://www.w3.org/2000/svg">
<path opacity="0.4" d="M8.93577 1.83198C7.14868 3.4143 6.25514 5.41546 6.25514 7.83547L6.31099 8.5894C8.41454 9.01755 9.46631 10.2927 9.46631 12.4149C9.46631 13.569 9.05677 14.5184 8.23769 15.263C7.43722 15.989 6.4506 16.352 5.27783 16.352C3.78859 16.352 2.60651 15.7936 1.73158 14.6767C0.856653 13.5411 0.419189 12.0798 0.419189 10.2927C0.419189 7.90993 1.21965 5.76915 2.82059 3.87038C4.44013 1.95298 6.47853 0.780207 8.93577 0.352051V1.83198ZM23.1766 1.83198C21.3895 3.4143 20.496 5.41546 20.496 7.83547L20.5518 8.5894C22.6368 8.99894 23.6792 10.2741 23.6792 12.4149C23.6792 13.569 23.279 14.5184 22.4785 15.263C21.6781 15.989 20.6914 16.352 19.5187 16.352C18.0294 16.352 16.8473 15.8029 15.9724 14.7046C15.0975 13.6063 14.66 12.1356 14.66 10.2927C14.66 7.9844 15.4512 5.86223 17.0335 3.92622C18.6344 1.9716 20.6821 0.780207 23.1766 0.352051V1.83198Z" fill="#FF6D0A"/>
</svg>

